<?xml version="1.0" standalone="no"?>
<!DOCTYPE svg PUBLIC "-//W3C//DTD SVG 20010904//EN"
 "http://www.w3.org/TR/2001/REC-SVG-20010904/DTD/svg10.dtd">
<svg version="1.0" xmlns="http://www.w3.org/2000/svg"
 width="100.000000pt" height="64.000000pt" viewBox="0 0 658.000000 423.000000"
 preserveAspectRatio="xMidYMid meet">
 <!-- width="658.000000pt" height="423.000000pt" -->
<metadata>
Created by potrace 1.16, written by Peter Selinger 2001-2019
</metadata>
<g transform="translate(0.000000,423.000000) scale(0.100000,-0.100000)"
fill="#000000" stroke="none">
<path d="M3425 4216 c-22 -9 -50 -27 -62 -41 -30 -35 -16 -74 38 -105 47 -26
94 -24 155 6 75 37 92 95 39 130 -34 22 -122 27 -170 10z"/>
<path d="M3145 4172 c-117 -54 -127 -172 -15 -172 73 0 140 63 140 131 0 51
-61 71 -125 41z"/>
<path d="M3685 4117 c-62 -30 -105 -78 -105 -118 0 -25 6 -33 35 -45 44 -18
80 -18 138 2 66 22 107 63 107 106 0 72 -85 98 -175 55z"/>
<path d="M2889 4081 c-29 -29 -38 -76 -23 -115 15 -40 99 3 124 64 10 25 10
34 -4 55 -22 34 -60 32 -97 -4z"/>
<path d="M2721 4014 c-34 -44 -26 -104 15 -104 40 0 66 35 62 83 -3 37 -6 42
-29 45 -19 2 -33 -4 -48 -24z"/>
<path d="M3280 4005 c-41 -19 -80 -53 -80 -72 0 -27 48 -46 100 -40 59 7 98
31 106 64 13 50 -60 77 -126 48z"/>
<path d="M3451 3920 c-33 -8 -51 -24 -51 -47 0 -17 40 -43 67 -43 26 0 63 32
63 54 0 15 -27 47 -38 45 -4 -1 -22 -5 -41 -9z"/>
<path d="M3053 3889 c-20 -20 -16 -67 6 -79 11 -5 38 -10 60 -10 31 0 44 6 61
27 21 26 21 27 1 46 -24 24 -110 35 -128 16z"/>
<path d="M2862 3868 c-17 -17 -15 -54 4 -72 19 -20 24 -20 52 0 39 27 23 84
-23 84 -12 0 -26 -5 -33 -12z"/>
<path d="M2563 3862 c-50 -8 -96 -101 -57 -116 51 -20 104 18 104 74 0 33 -17
47 -47 42z"/>
<path d="M2735 3787 c-23 -17 -14 -47 15 -47 26 0 37 27 18 46 -12 12 -17 12
-33 1z"/>
<path d="M3645 3724 c-125 -32 -259 -63 -298 -69 -45 -6 -50 -4 -79 27 -30 33
-32 33 -112 31 -45 -1 -115 -10 -156 -19 -41 -10 -93 -17 -115 -16 -130 7
-129 7 -250 -53 -86 -42 -115 -62 -112 -74 2 -9 10 -14 18 -12 105 30 153 33
459 28 197 -3 356 -11 425 -20 941 -129 980 -137 1142 -222 119 -63 178 -78
277 -73 83 5 176 34 217 67 49 40 -12 91 -166 137 -71 21 -112 27 -192 28
l-103 1 0 25 c0 83 -120 125 -286 100 -43 -6 -89 -14 -100 -17 -17 -3 -23 1
-28 21 -16 64 -108 75 -278 33 l-98 -24 0 36 c0 26 -6 40 -21 49 -23 15 -111
24 -144 16z"/>
<path d="M2810 3540 c-147 -8 -230 -31 -320 -91 -74 -50 -160 -143 -160 -174
0 -40 22 -48 112 -41 46 4 126 7 178 7 208 2 282 29 391 141 90 92 102 136 44
158 -28 11 -48 11 -245 0z"/>
<path d="M2350 3533 c-87 -31 -161 -65 -240 -111 -130 -75 -270 -170 -277
-188 -13 -35 15 -34 125 5 62 22 151 47 198 56 126 24 187 50 242 104 60 57
73 98 42 123 -22 17 -59 22 -90 11z"/>
<path d="M3340 3509 c-119 -17 -237 -82 -322 -177 -61 -68 -62 -107 -2 -144
144 -89 231 -97 450 -44 168 41 233 68 314 128 113 86 145 141 98 172 -35 22
-364 76 -453 74 -16 0 -55 -4 -85 -9z"/>
<path d="M442 3445 c-29 -13 -55 -31 -58 -40 -8 -21 24 -93 50 -111 71 -50
190 39 171 127 -12 55 -76 64 -163 24z"/>
<path d="M689 3431 c-38 -38 -47 -68 -33 -105 9 -25 36 -36 127 -52 154 -27
183 -16 175 68 -3 28 -13 57 -24 70 -30 33 -94 58 -153 58 -49 0 -57 -3 -92
-39z"/>
<path d="M986 3455 c-9 -9 -16 -18 -16 -20 0 -2 16 -22 35 -45 19 -23 35 -46
35 -52 0 -14 -20 -50 -46 -81 -28 -34 -31 -65 -6 -73 9 -3 52 -22 95 -41 72
-33 83 -35 140 -29 34 4 99 11 144 15 91 9 108 18 134 76 44 96 18 127 -154
184 -221 73 -333 93 -361 66z"/>
<path d="M4015 3418 c-30 -8 -59 -30 -113 -85 -109 -112 -128 -164 -83 -236
31 -51 182 -162 240 -177 54 -14 443 -5 531 12 122 23 218 92 206 150 -26 132
-348 302 -636 338 -96 11 -91 11 -145 -2z"/>
<path d="M244 3358 c-62 -42 -67 -72 -12 -76 67 -6 147 58 118 93 -19 23 -54
18 -106 -17z"/>
<path d="M1620 3303 c-49 -9 -90 -68 -110 -159 -20 -87 7 -118 62 -75 34 28
117 153 124 190 6 27 3 32 -20 41 -15 5 -28 9 -29 9 -1 -1 -13 -4 -27 -6z"/>
<path d="M237 3256 c-37 -13 -77 -32 -89 -42 -26 -24 -48 -75 -48 -113 0 -36
23 -46 88 -36 81 12 122 34 153 84 35 55 37 94 7 115 -28 20 -28 20 -111 -8z"/>
<path d="M465 3252 c-83 -29 -97 -86 -36 -151 28 -30 32 -32 83 -25 93 11 103
20 106 91 2 52 -1 66 -18 83 -25 25 -67 25 -135 2z"/>
<path d="M2080 3255 c-105 -26 -261 -101 -337 -162 -53 -43 -67 -84 -60 -183
8 -124 11 -127 207 -243 115 -68 174 -85 232 -67 104 30 127 71 139 233 12
162 23 204 70 267 21 28 39 55 39 60 0 4 -9 19 -21 34 -49 63 -163 89 -269 61z"/>
<path d="M685 3248 c-45 -124 -45 -151 -5 -206 27 -37 35 -42 70 -42 81 0 190
78 190 135 0 41 -18 56 -113 94 -83 33 -135 39 -142 19z"/>
<path d="M4905 3243 c-99 -22 -110 -46 -40 -88 25 -14 102 -64 171 -110 144
-97 219 -135 324 -164 98 -27 173 -28 200 -1 25 25 25 31 -1 63 -26 34 -346
262 -402 288 -33 14 -64 18 -137 18 -52 -1 -104 -3 -115 -6z"/>
<path d="M2590 3191 c-122 -7 -142 -16 -235 -111 l-60 -61 -4 -90 c-4 -120 6
-191 32 -230 19 -29 79 -73 262 -196 59 -39 108 -43 175 -12 25 11 68 29 96
40 67 25 129 71 149 108 11 22 14 57 13 128 -1 85 3 107 26 168 34 86 36 119
6 149 -46 50 -262 122 -340 114 -8 -1 -62 -4 -120 -7z"/>
<path d="M3520 3110 c-77 -26 -149 -42 -214 -49 -106 -11 -125 -19 -187 -83
-56 -57 -74 -125 -66 -246 8 -108 25 -153 89 -232 24 -30 61 -83 82 -118 49
-81 72 -96 136 -90 61 6 339 140 384 185 18 18 40 62 58 114 17 46 52 118 80
159 81 122 77 151 -46 291 -108 125 -132 130 -316 69z"/>
<path d="M24 3084 c-9 -20 -18 -66 -21 -103 -6 -76 2 -88 77 -116 97 -36 113
-38 151 -23 38 16 69 66 69 110 0 34 -36 87 -65 94 -36 9 -89 -3 -120 -28 -34
-26 -45 -14 -45 55 0 59 -24 65 -46 11z"/>
<path d="M322 3087 c-12 -13 -22 -30 -22 -38 1 -20 35 -59 53 -59 26 0 58 51
55 84 -3 26 -8 31 -33 34 -22 2 -37 -4 -53 -21z"/>
<path d="M950 3053 c-155 -141 -165 -156 -113 -190 32 -21 146 -23 204 -4 95
31 125 156 54 227 -40 40 -73 32 -145 -33z"/>
<path d="M1291 3091 c-56 -10 -85 -43 -100 -111 -15 -70 -14 -112 4 -138 9
-12 50 -44 91 -72 72 -48 77 -50 99 -36 59 39 135 158 135 213 0 101 -102 166
-229 144z"/>
<path d="M4875 3041 c-22 -11 -50 -28 -62 -38 -33 -28 -73 -93 -73 -120 0 -53
64 -254 89 -279 30 -30 120 -57 266 -79 61 -9 137 -27 171 -41 79 -31 102 -31
114 2 14 36 -1 87 -66 222 -63 131 -118 192 -256 284 -100 68 -128 76 -183 49z"/>
<path d="M523 3000 c-22 -13 -34 -29 -38 -53 -18 -96 100 -161 166 -91 18 19
21 31 16 71 -9 83 -74 116 -144 73z m57 -55 c-7 -8 -16 -12 -21 -9 -13 8 -1
24 18 24 13 0 13 -3 3 -15z"/>
<path d="M1591 2916 c-25 -27 -61 -140 -61 -193 0 -29 21 -63 38 -63 16 0 53
33 66 58 31 61 28 214 -5 220 -8 1 -25 -8 -38 -22z"/>
<path d="M322 2877 c-12 -13 -25 -37 -28 -55 -6 -28 -1 -37 34 -72 31 -31 47
-40 75 -40 51 0 54 22 15 99 -32 64 -52 91 -67 91 -4 0 -17 -10 -29 -23z"/>
<path d="M4115 2884 c-11 -3 -30 -7 -42 -9 -37 -8 -84 -56 -144 -147 -67 -102
-86 -166 -68 -232 6 -22 46 -97 89 -166 42 -69 91 -152 108 -185 17 -33 37
-67 44 -76 45 -56 104 -43 223 51 33 26 106 75 162 109 167 101 306 271 289
354 -8 42 -75 215 -95 246 -28 43 -63 49 -312 55 -129 3 -243 3 -254 0z"/>
<path d="M720 2840 c-9 -16 -8 -25 1 -36 26 -32 84 0 62 34 -16 26 -50 27 -63
2z"/>
<path d="M5300 2844 c-7 -7 16 -60 65 -155 88 -170 120 -204 262 -277 189 -97
243 -108 264 -54 20 52 -64 236 -144 317 -61 60 -151 120 -222 148 -61 23
-212 38 -225 21z"/>
<path d="M5796 2841 c-11 -18 6 -42 28 -39 29 4 29 42 -1 46 -11 2 -24 -1 -27
-7z"/>
<path d="M5953 2830 c-33 -13 -31 -57 2 -72 19 -8 31 -8 51 0 21 10 25 18 22
45 -2 26 -8 32 -28 34 -14 1 -35 -2 -47 -7z"/>
<path d="M661 2800 c-19 -11 -9 -45 14 -45 13 0 21 8 23 21 3 23 -17 37 -37
24z"/>
<path d="M501 2756 c-15 -18 -3 -46 20 -46 25 0 35 26 19 45 -15 19 -24 19
-39 1z"/>
<path d="M587 2763 c-12 -12 -7 -41 8 -47 19 -7 46 20 39 39 -6 15 -35 20 -47
8z"/>
<path d="M6143 2730 c-28 -11 -32 -64 -7 -74 45 -17 84 1 84 39 0 40 -30 54
-77 35z"/>
<path d="M5810 2705 c0 -22 4 -26 23 -23 14 2 22 10 22 23 0 13 -8 21 -22 23
-19 3 -23 -1 -23 -23z"/>
<path d="M1713 2684 c-10 -26 6 -283 22 -359 8 -38 27 -95 42 -125 24 -47 32
-55 59 -58 25 -2 37 3 53 24 25 31 111 294 111 338 0 41 -79 114 -172 161 -78
39 -105 43 -115 19z"/>
<path d="M5934 2685 c-8 -19 22 -65 41 -65 25 0 36 34 19 58 -17 25 -52 29
-60 7z"/>
<path d="M1575 2628 c-66 -58 -115 -189 -115 -309 0 -124 47 -153 124 -76 72
73 80 94 84 240 2 70 1 139 -2 152 -9 35 -47 32 -91 -7z"/>
<path d="M6262 2620 c-45 -19 -36 -70 15 -88 58 -20 109 28 78 74 -16 25 -50
31 -93 14z"/>
<path d="M2153 2567 c-97 -66 -113 -94 -190 -327 -93 -280 -83 -330 98 -511
140 -139 236 -181 270 -117 7 13 16 84 20 159 14 238 67 445 144 559 62 92 62
111 5 174 -55 60 -164 116 -224 116 -38 0 -57 -8 -123 -53z"/>
<path d="M6042 2609 c-31 -12 -26 -45 11 -73 21 -16 32 -18 45 -10 27 17 27
59 0 78 -25 18 -25 18 -56 5z"/>
<path d="M890 2551 c-21 -17 -23 -22 -12 -45 24 -53 112 -56 112 -4 0 29 -9
42 -37 57 -29 15 -34 14 -63 -8z"/>
<path d="M746 2551 c-10 -16 5 -41 24 -41 19 0 34 25 24 41 -3 5 -14 9 -24 9
-10 0 -21 -4 -24 -9z"/>
<path d="M4837 2531 c-41 -51 -96 -142 -107 -177 -16 -53 3 -115 60 -194 22
-30 63 -93 91 -138 79 -129 121 -144 241 -87 71 32 236 139 272 175 36 35 45
105 26 195 -19 91 -47 113 -210 164 -213 68 -349 91 -373 62z"/>
<path d="M5917 2527 c-8 -21 8 -39 29 -35 27 5 25 42 -2 46 -12 2 -24 -3 -27
-11z"/>
<path d="M1138 2519 c-24 -13 -23 -40 3 -73 47 -60 127 -5 85 58 -18 28 -56
34 -88 15z"/>
<path d="M2935 2523 c-41 -11 -280 -125 -321 -154 -56 -39 -83 -87 -132 -239
-60 -184 -76 -276 -77 -415 0 -104 3 -127 22 -169 36 -77 133 -164 244 -219
210 -104 343 -96 408 23 23 41 25 57 32 269 8 234 16 291 66 456 52 172 31
272 -81 392 -45 49 -56 55 -96 58 -25 2 -54 1 -65 -2z"/>
<path d="M6165 2485 c-32 -31 -31 -38 4 -77 29 -32 31 -33 58 -18 37 20 43 70
14 99 -27 27 -47 26 -76 -4z"/>
<path d="M1041 2490 c-19 -11 -9 -45 14 -45 13 0 21 8 23 21 3 23 -17 37 -37
24z"/>
<path d="M6355 2465 c-25 -24 -32 -59 -17 -83 19 -28 77 -62 109 -62 62 0 102
66 73 121 -28 51 -125 65 -165 24z"/>
<path d="M6007 2457 c-25 -19 -25 -57 0 -74 19 -13 23 -13 42 6 35 35 -4 97
-42 68z"/>
<path d="M1283 2433 c-17 -6 -16 -38 2 -53 19 -16 49 -9 53 13 7 33 -22 54
-55 40z"/>
<path d="M1077 2413 c-22 -22 25 -69 57 -57 19 7 21 35 4 52 -13 13 -50 16
-61 5z"/>
<path d="M3717 2405 c-21 -7 -73 -33 -115 -57 -42 -25 -114 -59 -159 -77 -133
-53 -167 -79 -193 -147 -35 -96 -49 -171 -71 -400 -38 -399 -10 -495 148 -494
26 1 68 5 93 10 25 6 122 14 216 20 140 8 190 15 275 40 57 16 116 30 130 30
42 0 88 20 94 41 4 11 1 52 -5 92 -9 58 -8 96 4 192 15 119 12 173 -13 238
-16 43 -211 406 -242 453 -26 39 -80 75 -111 74 -7 -1 -30 -7 -51 -15z"/>
<path d="M5450 2393 c0 -36 15 -128 30 -184 17 -65 88 -129 168 -153 87 -27
71 -30 -24 -5 -55 14 -94 18 -129 14 -91 -11 -285 -125 -285 -167 0 -9 36 -28
95 -51 111 -42 206 -96 293 -166 34 -27 77 -53 95 -56 72 -14 220 64 252 131
15 31 16 43 5 76 -17 59 -82 123 -164 163 -39 19 -65 35 -58 35 28 0 149 -55
202 -91 69 -48 101 -56 125 -33 41 42 -15 203 -104 297 -28 30 -73 66 -99 80
-51 28 -359 137 -386 137 -11 0 -16 -9 -16 -27z"/>
<path d="M6038 2305 c-9 -19 -8 -29 6 -50 18 -28 24 -29 60 -15 20 7 26 17 26
38 0 36 -16 52 -52 52 -20 0 -32 -7 -40 -25z"/>
<path d="M6208 2324 c-9 -3 -21 -18 -27 -33 -22 -52 17 -101 80 -101 23 0 69
42 69 64 0 42 -73 84 -122 70z"/>
<path d="M1612 2256 c-55 -59 -73 -98 -80 -168 -6 -68 27 -181 81 -283 48 -90
89 -102 148 -41 l30 31 -15 -30 c-46 -87 18 -251 149 -382 63 -62 100 -76 125
-45 23 28 54 202 45 250 -10 53 -26 78 -114 171 -86 92 -109 101 -161 62 l-29
-21 19 43 c11 23 20 57 20 75 0 47 -34 143 -81 225 -22 39 -45 90 -52 114 -15
56 -33 55 -85 -1z"/>
<path d="M6455 2245 c-34 -33 -35 -97 -3 -119 54 -38 128 1 128 67 0 69 -77
101 -125 52z"/>
<path d="M4551 2204 c-128 -71 -277 -198 -311 -264 -28 -54 -38 -130 -44 -322
-5 -152 -4 -179 10 -192 27 -27 84 -19 175 25 46 22 129 59 184 81 305 122
419 233 359 350 -31 59 -196 293 -230 326 -18 17 -44 32 -56 32 -13 0 -52 -16
-87 -36z"/>
<path d="M6233 2148 c-28 -14 -30 -44 -4 -58 39 -20 75 24 44 55 -8 8 -15 15
-16 14 -1 0 -12 -5 -24 -11z"/>
<path d="M5111 1839 c-22 -7 -75 -50 -150 -123 -64 -61 -133 -124 -153 -139
-21 -16 -38 -34 -38 -40 0 -7 57 -55 126 -107 179 -134 204 -150 238 -150 36
0 286 75 341 102 120 60 135 143 45 257 -22 27 -76 74 -122 104 -135 90 -216
117 -287 96z"/>
<path d="M1294 1825 c-8 -19 3 -35 26 -35 19 0 30 17 23 38 -6 17 -42 15 -49
-3z"/>
<path d="M1387 1768 c-6 -21 4 -46 21 -53 24 -9 57 32 41 51 -14 17 -56 18
-62 2z"/>
<path d="M1176 1714 c-24 -24 -19 -52 12 -68 31 -16 55 -8 72 24 8 15 6 24
-10 40 -24 24 -53 26 -74 4z"/>
<path d="M1346 1654 c-5 -12 2 -26 18 -43 21 -21 27 -22 41 -11 9 8 15 24 13
39 -2 21 -9 27 -34 29 -23 2 -33 -2 -38 -14z"/>
<path d="M1476 1655 c-3 -9 3 -24 14 -35 16 -16 25 -18 40 -10 23 12 26 30 8
48 -17 17 -55 15 -62 -3z"/>
<path d="M1472 1568 c-18 -18 -14 -36 12 -53 29 -19 56 -10 56 19 0 26 -18 46
-40 46 -9 0 -21 -5 -28 -12z"/>
<path d="M1057 1550 c-32 -25 -43 -68 -23 -88 20 -21 85 -17 107 5 29 30 32
60 10 82 -26 26 -61 27 -94 1z"/>
<path d="M2142 1538 c-26 -43 -52 -121 -52 -156 1 -70 49 -127 201 -240 92
-69 114 -56 149 81 36 141 18 184 -105 251 -33 18 -85 47 -117 65 l-56 31 -20
-32z"/>
<path d="M1348 1509 c-38 -22 -10 -85 32 -71 16 5 40 31 40 43 0 12 -30 39
-43 39 -7 0 -20 -5 -29 -11z"/>
<path d="M4625 1501 c-107 -40 -248 -101 -281 -121 -63 -39 -61 -47 27 -150
44 -52 94 -119 111 -149 17 -30 40 -63 50 -73 27 -27 99 -23 198 13 47 17 129
43 183 59 112 31 137 49 137 96 0 26 -13 48 -59 102 -101 117 -232 223 -291
236 -14 3 -47 -3 -75 -13z"/>
<path d="M1486 1454 c-36 -35 -12 -74 44 -74 36 0 70 23 70 47 0 37 -84 57
-114 27z"/>
<path d="M1196 1399 c-37 -29 -33 -73 7 -77 55 -6 92 64 48 88 -25 13 -24 13
-55 -11z"/>
<path d="M1354 1375 c-4 -9 -2 -21 4 -27 16 -16 47 -5 47 17 0 26 -42 34 -51
10z"/>
<path d="M1044 1350 c-29 -12 -37 -26 -30 -56 5 -18 13 -24 34 -24 35 0 52 16
52 51 0 21 -20 44 -33 38 -1 0 -12 -4 -23 -9z"/>
<path d="M2516 1322 c-8 -15 -22 -54 -31 -86 -21 -71 -11 -117 32 -157 52 -48
249 -159 282 -159 60 0 87 51 78 150 -6 75 -30 124 -70 143 -18 8 -80 38 -139
66 -58 27 -109 55 -113 60 -11 18 -24 12 -39 -17z"/>
<path d="M1562 1328 c-29 -15 -64 -71 -56 -92 17 -45 140 -16 158 37 7 19 7
34 0 45 -13 20 -70 26 -102 10z"/>
<path d="M4099 1289 c-48 -15 -136 -38 -195 -50 -60 -11 -112 -23 -115 -25 -4
-2 4 -30 16 -61 13 -32 34 -100 48 -151 14 -51 32 -101 42 -112 27 -30 101
-43 176 -31 83 14 215 14 278 0 88 -19 113 14 91 124 -15 78 -35 117 -108 209
-32 40 -66 85 -75 101 -22 34 -45 34 -158 -4z"/>
<path d="M5851 1259 c-42 -22 -101 -89 -101 -116 0 -21 44 -36 85 -29 66 13
142 105 117 143 -15 23 -56 24 -101 2z"/>
<path d="M1172 1244 c-27 -18 -27 -61 -1 -77 24 -15 68 0 81 28 9 21 8 28 -7
45 -22 24 -43 25 -73 4z"/>
<path d="M1411 1236 c-7 -8 -11 -30 -9 -48 3 -28 7 -34 31 -36 16 -2 35 2 43
9 17 14 19 60 2 77 -16 16 -53 15 -67 -2z"/>
<path d="M5630 1212 c-34 -35 -47 -76 -30 -97 19 -23 49 -18 81 15 25 24 30
37 27 67 -4 51 -36 57 -78 15z"/>
<path d="M5469 1201 c-46 -47 -36 -111 17 -111 25 0 54 32 74 81 12 28 12 33
-5 45 -29 21 -54 17 -86 -15z"/>
<path d="M1025 1209 c-34 -19 -45 -40 -34 -60 22 -42 94 -6 87 43 -3 26 -24
33 -53 17z"/>
<path d="M3456 1205 c-55 -19 -71 -40 -90 -117 -24 -100 -22 -159 8 -187 25
-24 195 -77 335 -107 65 -13 76 -13 89 0 29 28 26 105 -8 237 -35 138 -52 165
-116 179 -58 14 -173 11 -218 -5z"/>
<path d="M6013 1209 c-67 -20 -97 -103 -48 -135 20 -13 50 -16 146 -15 154 1
177 16 124 79 -47 57 -155 91 -222 71z"/>
<path d="M1592 1194 c-44 -31 -19 -87 45 -100 35 -7 95 10 113 31 18 21 4 60
-25 73 -37 17 -107 15 -133 -4z"/>
<path d="M2918 1183 c-18 -22 -28 -163 -13 -199 17 -40 43 -58 199 -133 186
-90 193 -85 203 130 l6 127 -28 26 c-39 37 -111 54 -243 59 -86 3 -115 0 -124
-10z"/>
<path d="M5296 1169 c-33 -26 -33 -52 0 -78 31 -25 63 -16 82 23 12 23 11 31
-2 52 -20 29 -45 31 -80 3z"/>
<path d="M5145 1144 c-18 -19 -16 -33 9 -48 24 -15 50 18 35 45 -12 23 -23 24
-44 3z"/>
<path d="M1300 1093 c-25 -32 -23 -61 5 -79 30 -20 89 12 93 50 7 59 -59 78
-98 29z"/>
<path d="M1470 1090 c-23 -23 -24 -29 -10 -64 12 -33 53 -35 74 -4 20 29 20
52 0 72 -21 21 -40 20 -64 -4z"/>
<path d="M1146 1069 c-41 -32 -29 -99 18 -99 27 0 76 51 76 79 0 43 -51 54
-94 20z"/>
<path d="M1596 1077 c-28 -21 -13 -57 24 -57 37 0 52 36 24 57 -10 7 -21 13
-24 13 -3 0 -14 -6 -24 -13z"/>
<path d="M983 1055 c-34 -14 -73 -67 -73 -98 0 -30 47 -69 73 -61 54 16 95 82
78 127 -15 38 -40 48 -78 32z"/>
<path d="M5677 1052 c-23 -25 -21 -54 5 -87 45 -57 112 -64 138 -15 14 25 2
47 -45 89 -40 35 -74 40 -98 13z"/>
<path d="M1715 1049 c-68 -40 -81 -82 -42 -140 33 -49 68 -64 106 -45 41 22
92 101 82 129 -18 47 -104 80 -146 56z"/>
<path d="M5858 1049 c-28 -16 -23 -66 11 -99 37 -38 74 -47 106 -26 73 48 -41
170 -117 125z"/>
<path d="M5502 1032 c-27 -27 -18 -69 22 -93 83 -50 148 14 75 75 -17 14 -34
26 -39 26 -5 0 -15 3 -23 6 -9 3 -24 -3 -35 -14z"/>
<path d="M6120 1029 c-117 -18 -108 -50 25 -85 116 -30 170 -31 185 -4 37 70
-61 111 -210 89z"/>
<path d="M5356 984 c-19 -18 -9 -44 26 -68 43 -31 88 -14 88 32 0 17 -9 27
-35 38 -44 18 -60 18 -79 -2z"/>
<path d="M1357 970 c-63 -50 -25 -157 43 -120 22 12 60 67 60 88 0 18 -38 52
-59 52 -10 0 -30 -9 -44 -20z"/>
<path d="M5056 975 c-3 -8 2 -22 11 -30 14 -15 18 -15 31 -1 8 8 12 22 9 30
-8 20 -43 21 -51 1z"/>
<path d="M5194 955 c-10 -24 23 -65 51 -65 33 0 49 30 29 58 -18 26 -71 30
-80 7z"/>
<path d="M1511 929 c-24 -26 -27 -57 -7 -84 14 -19 16 -19 50 -3 36 17 51 47
44 85 -5 28 -61 30 -87 2z"/>
<path d="M1160 897 c-71 -47 -88 -125 -34 -149 71 -33 190 114 128 159 -26 19
-56 16 -94 -10z"/>
<path d="M6013 899 c-31 -11 -29 -44 3 -74 27 -25 49 -30 78 -19 23 9 20 47
-6 71 -30 27 -48 32 -75 22z"/>
<path d="M1858 884 c-54 -29 -62 -88 -24 -170 32 -68 89 -130 133 -145 34 -11
38 -10 60 15 29 34 30 86 3 162 -23 67 -60 119 -100 139 -35 18 -38 18 -72 -1z"/>
<path d="M4742 888 c-16 -16 -15 -43 3 -58 21 -18 47 5 43 39 -3 29 -27 38
-46 19z"/>
<path d="M5823 894 c-18 -8 -16 -45 2 -71 32 -46 140 -38 133 9 -6 40 -94 80
-135 62z"/>
<path d="M5616 874 c-9 -8 -16 -24 -16 -34 0 -27 56 -70 91 -70 31 0 69 30 69
55 0 21 -37 52 -72 59 -45 9 -55 8 -72 -10z"/>
<path d="M6203 880 c-35 -14 -28 -46 15 -74 50 -34 122 -58 149 -51 28 7 46
39 38 66 -13 39 -152 80 -202 59z"/>
<path d="M4905 836 c-32 -32 -32 -70 0 -101 46 -47 95 -26 95 38 0 75 -50 108
-95 63z"/>
<path d="M5459 821 c-22 -17 -22 -20 -7 -43 9 -14 30 -31 47 -38 26 -10 35
-10 56 4 38 25 34 63 -10 82 -45 18 -58 18 -86 -5z"/>
<path d="M1590 817 c-50 -13 -60 -24 -60 -69 0 -42 34 -88 65 -88 47 0 125 60
125 95 0 44 -72 78 -130 62z"/>
<path d="M5294 805 c-9 -34 0 -52 36 -74 52 -31 93 -10 69 37 -23 46 -41 62
-70 62 -22 0 -30 -6 -35 -25z"/>
<path d="M5085 797 c-38 -58 -27 -137 19 -137 47 0 86 81 63 129 -17 36 -60
40 -82 8z"/>
<path d="M1350 783 c-34 -43 -2 -113 52 -113 79 0 120 98 52 128 -43 20 -80
15 -104 -15z"/>
<path d="M5214 745 c-9 -23 4 -47 23 -43 22 4 30 38 11 49 -19 13 -28 11 -34
-6z"/>
<path d="M1193 725 c-31 -22 -47 -76 -32 -109 28 -61 119 -2 119 77 0 45 -45
62 -87 32z"/>
<path d="M1458 654 c-26 -14 -34 -34 -28 -74 8 -63 120 -26 120 40 0 49 -39
63 -92 34z"/>
<path d="M1675 652 c-84 -28 -93 -85 -29 -169 32 -42 70 -44 106 -5 53 56 77
132 53 168 -19 29 -57 31 -130 6z"/>
<path d="M1246 595 c-13 -10 -20 -31 -23 -80 -7 -75 10 -105 57 -105 43 0 64
33 64 95 -2 89 -46 130 -98 90z"/>
<path d="M1498 533 c-30 -19 -38 -39 -38 -101 0 -60 14 -82 52 -82 22 0 41 11
69 39 46 46 51 86 17 125 -30 33 -66 40 -100 19z"/>
<path d="M1820 503 c-38 -59 -38 -97 0 -156 68 -107 164 -115 191 -15 19 73
-27 165 -102 204 -44 22 -57 17 -89 -33z"/>
<path d="M1335 398 c-39 -35 -48 -89 -24 -154 23 -61 68 -114 96 -114 11 0 30
11 42 24 53 56 45 176 -16 234 -41 38 -63 40 -98 10z"/>
<path d="M1641 383 c-67 -34 -100 -146 -70 -232 20 -56 79 -68 122 -25 30 29
62 108 72 174 6 39 3 48 -17 67 -34 31 -67 36 -107 16z"/>
<path d="M1766 188 c-50 -106 -53 -132 -22 -163 19 -19 35 -25 69 -25 50 0 83
27 93 76 12 63 -40 176 -84 182 -19 3 -27 -8 -56 -70z"/>
</g>
</svg>
